<svg xmlns="http://www.w3.org/2000/svg" version="1.1" xmlns:xlink="http://www.w3.org/1999/xlink" xmlns:svgjs="http://svgjs.dev/svgjs" width="15 0" height="50" viewBox="0 0 1000 1000"><rect width="1000" height="1000" fill="#000000"></rect><g transform="matrix(0.7,0,0,0.7,149.57576031877772,441.279761978474)"><svg viewBox="0 0 396 67" data-background-color="#000000" preserveAspectRatio="xMidYMid meet" height="169" width="1000" xmlns="http://www.w3.org/2000/svg" xmlns:xlink="http://www.w3.org/1999/xlink"><g id="tight-bounds" transform="matrix(1,0,0,1,0.23999844823430294,-0.24339831474139828)"><svg viewBox="0 0 395.52 67.48679689933785" height="67.48679689933785" width="395.52"><g><svg viewBox="0 0 485.5364242136483 82.84612168319484" height="67.48679689933785" width="395.52"><g transform="matrix(1,0,0,1,90.01642421364838,0)"><svg viewBox="0 0 395.5199999999999 82.84612168319484" height="82.84612168319484" width="395.5199999999999"><g id="textblocktransform"><svg viewBox="0 0 395.5199999999999 82.84612168319484" height="82.84612168319484" width="395.5199999999999" id="textblock"><g><svg viewBox="0 0 395.5199999999999 82.84612168319484" height="82.84612168319484" width="395.5199999999999"><g transform="matrix(1,0,0,1,0,0)"><svg width="395.5199999999999" viewBox="5.420000076293945 -38.15999984741211 182.1699981689453 38.15999984741211" height="82.84612168319484" data-palette-color="#ffffff"><path d="M5.42 0L5.42-38.16 25.54-38.16Q29.93-38.16 33.15-37.21 36.38-36.25 38.5-34.46 40.63-32.67 41.66-30.08 42.7-27.49 42.7-24.24L42.7-24.24Q42.7-21.19 41.67-18.6 40.65-16.02 38.54-14.12 36.43-12.23 33.2-11.17 29.98-10.11 25.59-10.11L25.59-10.11 13.16-10.13 13.16 0 5.42 0ZM13.16-16.82L25.73-16.82Q27.93-16.82 29.58-17.35 31.23-17.87 32.34-18.84 33.45-19.8 34-21.18 34.55-22.56 34.55-24.24L34.55-24.24Q34.55-27.64 32.34-29.53 30.13-31.42 25.73-31.42L25.73-31.42 13.16-31.42 13.16-16.82ZM50.17 0L50.17-38.16 57.96-38.16 57.96 0 50.17 0ZM62.79 0L78.66-19.38 63.98-38.16 73.46-38.16 83.59-25.02 93.77-38.16 103.1-38.16 88.15-19.46 103.61 0 94.11 0 83.25-13.72 72.14 0 62.79 0ZM109.42 0L109.42-38.16 141.91-38.16 141.91-31.37 117.16-31.37 117.16-23.75 139.08-23.75 139.08-17.38 117.16-17.38 117.16-6.76 142.42-6.76 142.42 0 109.42 0ZM151.02 0L151.02-38.16 170.42-38.16Q174.82-38.16 178.04-37.24 181.26-36.33 183.39-34.59 185.51-32.86 186.55-30.37 187.59-27.88 187.59-24.73L187.59-24.73Q187.59-22.61 187.07-20.69 186.56-18.77 185.5-17.16 184.44-15.55 182.83-14.29 181.22-13.04 179.04-12.21L179.04-12.21 187.34 0 177.87 0 170.69-10.84 170.47-10.84 158.75-10.86 158.75 0 151.02 0ZM158.75-17.55L170.62-17.55Q172.82-17.55 174.47-18.07 176.11-18.58 177.22-19.51 178.33-20.43 178.88-21.77 179.43-23.1 179.43-24.73L179.43-24.73Q179.43-27.93 177.24-29.68 175.04-31.42 170.62-31.42L170.62-31.42 158.75-31.42 158.75-17.55Z" opacity="1" transform="matrix(1,0,0,1,0,0)" fill="#ffffff" class="wordmark-text-0" data-fill-palette-color="primary" id="text-0"></path></svg></g></svg></g></svg></g></svg></g><g transform="matrix(1,0,0,1,0,12.7997258000536)"><svg viewBox="0 0 70.45844319116647 57.246670083087636" height="57.246670083087636" width="70.45844319116647"><g><svg xmlns="http://www.w3.org/2000/svg" xmlns:xlink="http://www.w3.org/1999/xlink" version="1.1" x="0" y="0" viewBox="4 12.37700080871582 91.84500122070312 74.62300109863281" enable-background="new 0 0 100 100" xml:space="preserve" height="57.246670083087636" width="70.45844319116647" class="icon-icon-0" data-fill-palette-color="accent" id="icon-0"><g fill="#8c8c8c" data-fill-palette-color="accent"><path fill="#ffffff" d="M52.921 51.022c0 3.057-2.47 5.531-5.523 5.531-3.055 0-5.528-2.475-5.528-5.531 0-3.05 2.473-5.521 5.528-5.521C50.451 45.502 52.921 47.972 52.921 51.022z" data-fill-palette-color="accent"></path><path fill="#ffffff" d="M34.766 73.678h47.865l0 0 0 0V59.164L76.3 47.675l-8.603 18.581-5.071-7.806c0 0-7.098 6.633-14.572 11.846l-5.688-2.617L34.766 73.678z" data-fill-palette-color="accent"></path><path fill="#ffffff" d="M84.362 29.596v-5.738-5.741-5.74h-68.88H4v11.481 28.703 5.738 5.737h17.221V87h74.624V29.596H84.362zM21.221 55.179h-8.358V21.239H75.5v8.357H21.221V55.179zM86.98 78.137H30.083V38.459H86.98V78.137z" data-fill-palette-color="accent"></path></g></svg></g></svg></g></svg></g><defs></defs></svg><rect width="395.52" height="67.48679689933785" fill="none" stroke="none" visibility="hidden"></rect></g></svg></g></svg>